<svg width="34" height="34" viewBox="0 0 34 34" fill="none" xmlns="http://www.w3.org/2000/svg">
<path d="M17 33.1C25.8918 33.1 33.1 25.8918 33.1 17C33.1 8.10822 25.8918 0.9 17 0.9C8.10822 0.9 0.9 8.10822 0.9 17C0.9 25.8918 8.10822 33.1 17 33.1Z" stroke="#003166" stroke-width="0.2"/>
<path d="M17.0003 18.4096L12.9676 13.7048C12.6701 13.3577 12.1877 13.3577 11.8901 13.7048C11.5926 14.0519 11.5926 14.6147 11.8901 14.9619L16.4616 20.2952C16.7591 20.6423 17.2415 20.6423 17.5391 20.2952L22.1105 14.9619C22.408 14.6147 22.408 14.0519 22.1105 13.7048C21.813 13.3577 21.3305 13.3577 21.033 13.7048L17.0003 18.4096Z" fill="#003166"/>
<mask id="mask0_385_1420" style="mask-type:luminance" maskUnits="userSpaceOnUse" x="11" y="13" width="12" height="8">
<path d="M17.0003 18.4096L12.9676 13.7048C12.6701 13.3577 12.1877 13.3577 11.8901 13.7048C11.5926 14.0519 11.5926 14.6147 11.8901 14.9619L16.4616 20.2952C16.7591 20.6423 17.2415 20.6423 17.5391 20.2952L22.1105 14.9619C22.408 14.6147 22.408 14.0519 22.1105 13.7048C21.813 13.3577 21.3305 13.3577 21.033 13.7048L17.0003 18.4096Z" fill="white"/>
</mask>
<g mask="url(#mask0_385_1420)">
</g>
</svg>
