<svg width="32" height="32" viewBox="0 0 32 32" fill="none" xmlns="http://www.w3.org/2000/svg">
<path fill-rule="evenodd" clip-rule="evenodd" d="M10.4055 6.09525C8.12197 6.09525 6.20046 7.80562 5.93584 10.0738L4.8 19.8095H20.8L19.6642 10.0738C19.3995 7.80562 17.478 6.09525 15.1945 6.09525H10.4055ZM1.5 19.8096C0.671573 19.8096 0 20.4811 0 21.3096V22.881C0 23.7094 0.671574 24.381 1.5 24.381H24.1C24.9284 24.381 25.6 23.7094 25.6 22.881V21.3096C25.6 20.4811 24.9284 19.8096 24.1 19.8096H1.5Z" fill="#007AFF"/>
<rect x="9.6001" y="25.9048" width="6.4" height="6.09524" rx="2.25" fill="#EBC8A3"/>
<path opacity="0.173224" fill-rule="evenodd" clip-rule="evenodd" d="M22.3998 18.2857C27.7017 18.2857 31.9998 14.1923 31.9998 9.14286C31.9998 4.0934 27.7017 0 22.3998 0C17.0979 0 12.7998 4.0934 12.7998 9.14286C12.7998 14.1923 17.0979 18.2857 22.3998 18.2857Z" fill="#FFB566"/>
<path fill-rule="evenodd" clip-rule="evenodd" d="M22.4 17.2698C27.1129 17.2698 30.9334 13.6313 30.9334 9.14285C30.9334 4.65444 27.1129 1.01587 22.4 1.01587C17.6872 1.01587 13.8667 4.65444 13.8667 9.14285C13.8667 13.6313 17.6872 17.2698 22.4 17.2698Z" fill="#FFB566"/>
<path d="M22.3213 13.0159V11.4079H18.6373V10.2799L22.5853 4.55587H23.8573V10.1359H25.0453V11.4079H23.8573V13.0159H22.3213ZM22.3213 10.1359V6.39187H22.6693L19.8373 10.5439V10.1359H22.3213Z" fill="#F2F2F2" fill-opacity="0.94902"/>
</svg>
