<svg width="24" height="24" viewBox="0 0 24 24" fill="none" xmlns="http://www.w3.org/2000/svg">
<g clip-path="url(#clip0_769_5337)">
<path d="M17.7461 16H7.16612C5.07612 16 3.21612 14.47 3.01612 12.39C2.78612 10.01 4.65612 8 6.99612 8H19.3561C20.6661 8 21.8561 8.94 21.9861 10.24C22.1361 11.74 20.9661 13 19.4961 13H8.99612C8.44612 13 7.99612 12.55 7.99612 12C7.99612 11.45 8.44612 11 8.99612 11H17.7461C18.1561 11 18.4961 10.66 18.4961 10.25C18.4961 9.84 18.1561 9.5 17.7461 9.5H9.13612C7.82612 9.5 6.63612 10.44 6.50612 11.74C6.35612 13.24 7.52612 14.5 8.99612 14.5H19.3261C21.4161 14.5 23.2761 12.97 23.4761 10.89C23.7061 8.5 21.8361 6.5 19.4961 6.5H7.22612C4.35612 6.5 1.78612 8.6 1.51612 11.46C1.21612 14.75 3.77612 17.5 6.99612 17.5H17.7461C18.1561 17.5 18.4961 17.16 18.4961 16.75C18.4961 16.34 18.1561 16 17.7461 16Z" fill="#C2C5CC"/>
</g>
<defs>
<clipPath id="clip0_769_5337">
<rect width="24" height="24" fill="white"/>
</clipPath>
</defs>
</svg>
