<svg width="32" height="32" viewBox="0 0 32 32" fill="none" xmlns="http://www.w3.org/2000/svg">
<rect opacity="0.01" width="32" height="32" fill="black"/>
<path fill-rule="evenodd" clip-rule="evenodd" d="M22.6667 5.33333H24C26.2091 5.33333 28 7.12419 28 9.33333V25.3333C28 27.5425 26.2091 29.3333 24 29.3333H8C5.79086 29.3333 4 27.5425 4 25.3333V9.33333C4 7.12419 5.79086 5.33333 8 5.33333H9.33333V4C9.33333 3.26362 9.93029 2.66666 10.6667 2.66666C11.403 2.66666 12 3.26362 12 4V5.33333H20V4C20 3.26362 20.597 2.66666 21.3333 2.66666C22.0697 2.66666 22.6667 3.26362 22.6667 4V5.33333ZM9.33333 21.3333C9.33333 22.0697 9.93029 22.6667 10.6667 22.6667C11.403 22.6667 12 22.0697 12 21.3333C12 20.597 11.403 20 10.6667 20C9.93029 20 9.33333 20.597 9.33333 21.3333ZM21.3333 22.6667H16C15.2636 22.6667 14.6667 22.0697 14.6667 21.3333C14.6667 20.597 15.2636 20 16 20H21.3333C22.0697 20 22.6667 20.597 22.6667 21.3333C22.6667 22.0697 22.0697 22.6667 21.3333 22.6667ZM6.66667 14.6667H25.3333V9.33333C25.3333 8.59695 24.7364 8 24 8H22.6667V9.33333C22.6667 10.0697 22.0697 10.6667 21.3333 10.6667C20.597 10.6667 20 10.0697 20 9.33333V8H12V9.33333C12 10.0697 11.403 10.6667 10.6667 10.6667C9.93029 10.6667 9.33333 10.0697 9.33333 9.33333V8H8C7.26362 8 6.66667 8.59695 6.66667 9.33333V14.6667Z" fill="#007AFF"/>
</svg>
