<svg width="5" height="18" viewBox="0 0 5 18" fill="none" xmlns="http://www.w3.org/2000/svg">
<path fill-rule="evenodd" clip-rule="evenodd" d="M2.4 4.8C3.72548 4.8 4.8 3.72548 4.8 2.4C4.8 1.07452 3.72548 0 2.4 0C1.07452 0 0 1.07452 0 2.4C0 3.72548 1.07452 4.8 2.4 4.8Z" fill="#CCE5FF"/>
<path fill-rule="evenodd" clip-rule="evenodd" d="M2.4 11.0969C3.72548 11.0969 4.8 10.0224 4.8 8.69688C4.8 7.37139 3.72548 6.29688 2.4 6.29688C1.07452 6.29688 0 7.37139 0 8.69688C0 10.0224 1.07452 11.0969 2.4 11.0969Z" fill="#CCE5FF"/>
<path fill-rule="evenodd" clip-rule="evenodd" d="M2.4 17.3957C3.72548 17.3957 4.8 16.3212 4.8 14.9957C4.8 13.6702 3.72548 12.5957 2.4 12.5957C1.07452 12.5957 0 13.6702 0 14.9957C0 16.3212 1.07452 17.3957 2.4 17.3957Z" fill="#CCE5FF"/>
</svg>
