<svg width="25" height="24" viewBox="0 0 25 24" fill="none" xmlns="http://www.w3.org/2000/svg">
<rect opacity="0.01" x="24.8594" y="24" width="23.9094" height="24" transform="rotate(180 24.8594 24)" fill="#CDE4FB"/>
<path d="M4.17394 7.28844L12.6618 11.9184C12.8112 11.9984 12.9905 11.9984 13.14 11.9184L21.6278 7.28844C21.7862 7.20995 21.8821 7.04375 21.8712 6.86682C21.8604 6.68989 21.7448 6.53679 21.578 6.47844L13.0902 2.99844C12.9689 2.94844 12.8329 2.94844 12.7116 2.99844L4.22375 6.47844C4.057 6.53679 3.9414 6.68989 3.93052 6.86682C3.91964 7.04375 4.0156 7.20995 4.17394 7.28844Z" fill="#CDE4FB"/>
<path d="M21.5789 10.6609L19.7558 9.88086L13.1409 13.4909C12.9915 13.5709 12.8122 13.5709 12.6627 13.4909L6.04777 9.88086L4.22468 10.6609C4.06732 10.7438 3.96875 10.9075 3.96875 11.0859C3.96875 11.2643 4.06732 11.4279 4.22468 11.5109L12.7125 16.4109C12.8593 16.501 13.044 16.501 13.1907 16.4109L21.6786 11.5109C21.8284 11.4107 21.9096 11.2346 21.8885 11.0552C21.8675 10.8757 21.7479 10.7233 21.5789 10.6609Z" fill="#CDE4FB"/>
<path d="M21.5865 15.0999L20.0323 14.4199L13.1484 18.1799C12.999 18.2599 12.8197 18.2599 12.6702 18.1799L5.78631 14.4199L4.2322 15.0999C4.07035 15.1842 3.96875 15.3519 3.96875 15.5349C3.96875 15.7179 4.07035 15.8857 4.2322 15.9699L12.72 20.9699C12.8695 21.0499 13.0488 21.0499 13.1982 20.9699L21.6861 15.9699C21.8405 15.8684 21.9246 15.6881 21.9035 15.5041C21.8825 15.32 21.7598 15.1636 21.5865 15.0999Z" fill="#CDE4FB"/>
</svg>
