<svg width="28" height="28" viewBox="0 0 28 28" fill="none" xmlns="http://www.w3.org/2000/svg">
<g clip-path="url(#clip0_436_1709)">
<path d="M17.5 12.8332V6.80156C17.5 6.18323 17.255 5.58823 16.8117 5.15656L14.8167 3.16156C14.3617 2.70656 13.6267 2.70656 13.1717 3.16156L11.1883 5.1449C10.745 5.58823 10.5 6.18323 10.5 6.80156V8.16656H5.83333C4.55 8.16656 3.5 9.21656 3.5 10.4999V22.1666C3.5 23.4499 4.55 24.4999 5.83333 24.4999H22.1667C23.45 24.4999 24.5 23.4499 24.5 22.1666V15.1666C24.5 13.8832 23.45 12.8332 22.1667 12.8332H17.5ZM8.16667 22.1666H5.83333V19.8332H8.16667V22.1666ZM8.16667 17.4999H5.83333V15.1666H8.16667V17.4999ZM8.16667 12.8332H5.83333V10.4999H8.16667V12.8332ZM15.1667 22.1666H12.8333V19.8332H15.1667V22.1666ZM15.1667 17.4999H12.8333V15.1666H15.1667V17.4999ZM15.1667 12.8332H12.8333V10.4999H15.1667V12.8332ZM15.1667 8.16656H12.8333V5.83323H15.1667V8.16656ZM22.1667 22.1666H19.8333V19.8332H22.1667V22.1666ZM22.1667 17.4999H19.8333V15.1666H22.1667V17.4999Z" fill="#CCE5FF"/>
</g>
<defs>
<clipPath id="clip0_436_1709">
<rect width="28" height="28" fill="white"/>
</clipPath>
</defs>
</svg>
