<svg width="24" height="24" viewBox="0 0 24 24" fill="none" xmlns="http://www.w3.org/2000/svg">
<rect opacity="0.01" width="24" height="24" fill="#E5F2FF"/>
<path d="M12 12.9961C12.5523 12.9961 13 12.5484 13 11.9961V1.99609C13 1.44381 12.5523 0.996094 12 0.996094C11.4477 0.996094 11 1.44381 11 1.99609V11.9961C11 12.5484 11.4477 12.9961 12 12.9961Z" fill="#E5F2FF"/>
<path d="M16.591 3.11206C16.0994 2.85801 15.495 3.05052 15.241 3.54206C14.9869 4.03359 15.1794 4.63801 15.671 4.89206C18.9506 6.58525 20.6461 10.3023 19.7749 13.8889C18.9037 17.4755 15.6919 20.0006 12.001 20.0006C8.31008 20.0006 5.09825 17.4755 4.22703 13.8889C3.35581 10.3023 5.05137 6.58525 8.33097 4.89206C8.64893 4.72771 8.85507 4.40622 8.87173 4.04869C8.88839 3.69115 8.71304 3.35188 8.41173 3.15869C8.11042 2.96549 7.72893 2.94771 7.41097 3.11206C3.31253 5.22946 1.19435 9.87566 2.28388 14.3582C3.3734 18.8408 7.38788 21.9964 12.001 21.9964C16.6141 21.9964 20.6285 18.8408 21.7181 14.3582C22.8076 9.87566 20.6894 5.22946 16.591 3.11206Z" fill="#E5F2FF"/>
</svg>
