<svg width="20" height="20" viewBox="0 0 20 20" fill="none" xmlns="http://www.w3.org/2000/svg">
<g clip-path="url(#clip0_653_3015)">
<path d="M10.0026 3.75C5.83594 3.75 2.2776 6.34167 0.835938 10C2.2776 13.6583 5.83594 16.25 10.0026 16.25C14.1693 16.25 17.7276 13.6583 19.1693 10C17.7276 6.34167 14.1693 3.75 10.0026 3.75ZM10.0026 14.1667C7.7026 14.1667 5.83594 12.3 5.83594 10C5.83594 7.7 7.7026 5.83333 10.0026 5.83333C12.3026 5.83333 14.1693 7.7 14.1693 10C14.1693 12.3 12.3026 14.1667 10.0026 14.1667ZM10.0026 7.5C8.61927 7.5 7.5026 8.61667 7.5026 10C7.5026 11.3833 8.61927 12.5 10.0026 12.5C11.3859 12.5 12.5026 11.3833 12.5026 10C12.5026 8.61667 11.3859 7.5 10.0026 7.5Z" fill="#888E9B"/>
</g>
<defs>
<clipPath id="clip0_653_3015">
<rect width="20" height="20" fill="white"/>
</clipPath>
</defs>
</svg>
