<svg width="32" height="32" viewBox="0 0 32 32" fill="none" xmlns="http://www.w3.org/2000/svg">
<rect opacity="0.01" width="32" height="32" fill="white"/>
<path fill-rule="evenodd" clip-rule="evenodd" d="M20.4002 3.10667L26.3202 9.77333C26.5424 10.0179 26.666 10.3362 26.6668 10.6667V26C26.6563 26.8947 26.2907 27.7485 25.6506 28.3737C25.0104 28.9988 24.1482 29.344 23.2535 29.3333H8.74683C7.85215 29.344 6.98988 28.9988 6.34974 28.3737C5.7096 27.7485 5.34404 26.8947 5.3335 26V6C5.34404 5.10532 5.7096 4.25147 6.34974 3.62634C6.98988 3.00121 7.85215 2.656 8.74683 2.66667H19.4135C19.7897 2.66756 20.1481 2.82736 20.4002 3.10667ZM16.0002 16H12.0002C11.2638 16 10.6668 16.597 10.6668 17.3333C10.6668 18.0697 11.2638 18.6667 12.0002 18.6667H16.0002C16.7365 18.6667 17.3335 18.0697 17.3335 17.3333C17.3335 16.597 16.7365 16 16.0002 16ZM12.0002 24C11.2638 24 10.6668 23.403 10.6668 22.6667C10.6668 21.9303 11.2638 21.3333 12.0002 21.3333H20.0002C20.7365 21.3333 21.3335 21.9303 21.3335 22.6667C21.3335 23.403 20.7365 24 20.0002 24H12.0002ZM18.6668 9.53333C18.6204 10.1061 19.0416 10.6104 19.6135 10.6667H23.6535L18.6668 5.33333V9.53333Z" fill="white"/>
</svg>
