<svg width="32" height="33" viewBox="0 0 32 33" fill="none" xmlns="http://www.w3.org/2000/svg">
<rect opacity="0.01" x="32" y="32.5" width="32" height="32" transform="rotate(180 32 32.5)" fill="white"/>
<path d="M16 18.5C17.1046 18.5 18 17.6046 18 16.5C18 15.3954 17.1046 14.5 16 14.5C14.8954 14.5 14 15.3954 14 16.5C14 17.6046 14.8954 18.5 16 18.5Z" fill="white"/>
<path fill-rule="evenodd" clip-rule="evenodd" d="M25.6398 12.9934H27.0932C28.3324 13.0007 29.3332 14.0074 29.3332 15.2467V17.8334C29.3268 19.0347 28.3738 20.0171 27.1732 20.06H25.7198C25.5451 20.0748 25.3945 20.189 25.3332 20.3534C25.2359 20.5034 25.2359 20.6966 25.3332 20.8467L26.3065 21.82C26.7275 22.238 26.9642 22.8068 26.9642 23.4C26.9642 23.9933 26.7275 24.562 26.3065 24.98L24.5198 26.7667C24.1066 27.1918 23.5394 27.4322 22.9465 27.4334C22.3511 27.4255 21.7821 27.1865 21.3598 26.7667L20.3465 25.74C20.1965 25.6427 20.0032 25.6427 19.8532 25.74C19.6532 25.82 19.5065 25.9534 19.5065 26.14V27.5934C19.4992 28.8326 18.4925 29.8334 17.2532 29.8334H14.7332C13.5266 29.8341 12.5363 28.8791 12.4932 27.6734V26.22C12.4784 26.0452 12.3642 25.8946 12.1998 25.8334C12.0332 25.7266 11.8198 25.7266 11.6532 25.8334L10.6265 26.82C10.2085 27.241 9.63976 27.4777 9.0465 27.4777C8.45325 27.4777 7.88452 27.241 7.4665 26.82L5.67984 25.0067C5.25267 24.5894 5.01225 24.0172 5.01317 23.42C5.02099 22.8246 5.26006 22.2556 5.67984 21.8334L6.75984 20.8467C6.85715 20.6966 6.85715 20.5034 6.75984 20.3534C6.67984 20.1534 6.5465 20.0067 6.35984 20.0067H4.9065C3.66723 19.9994 2.66648 18.9926 2.6665 17.7534V15.2334C2.6665 13.9962 3.66939 12.9934 4.9065 12.9934H6.27984C6.45462 12.9786 6.60522 12.8644 6.6665 12.7C6.77324 12.5334 6.77324 12.3199 6.6665 12.1534L5.67984 11.1667C5.24643 10.7472 5.00173 10.1699 5.00173 9.56669C5.00173 8.96352 5.24643 8.38616 5.67984 7.96669L7.5065 6.18002C7.9197 5.75489 8.48699 5.51451 9.07984 5.51335C9.67522 5.52117 10.2442 5.76025 10.6665 6.18002L11.6532 7.26002C11.8032 7.35733 11.9965 7.35733 12.1465 7.26002C12.3465 7.18002 12.4932 7.04669 12.4932 6.86002V5.40669C12.5005 4.16742 13.5072 3.16667 14.7465 3.16669H17.3332C18.5442 3.20274 19.507 4.19514 19.5065 5.40669V6.78002C19.5212 6.9548 19.6355 7.1054 19.7998 7.16669C19.9664 7.27342 20.1799 7.27342 20.3465 7.16669L21.3732 6.18002C21.7912 5.75906 22.3599 5.52232 22.9532 5.52232C23.5464 5.52232 24.1152 5.75906 24.5332 6.18002L26.3198 8.00669C26.7457 8.42485 26.9859 8.99649 26.9865 9.59335C26.9884 10.1868 26.7476 10.7553 26.3198 11.1667L25.2398 12.1534C25.1425 12.3034 25.1425 12.4966 25.2398 12.6467C25.3198 12.8467 25.4532 12.9934 25.6398 12.9934ZM11.6884 18.2859C12.4107 20.0297 14.1123 21.1667 15.9998 21.1667C18.5772 21.1667 20.6665 19.0773 20.6665 16.5C20.6665 14.6125 19.5295 12.9109 17.7857 12.1886C16.0419 11.4663 14.0347 11.8655 12.7 13.2002C11.3653 14.5348 10.9661 16.5421 11.6884 18.2859Z" fill="white"/>
</svg>
