<svg width="103" height="67" viewBox="0 0 103 67" fill="none" xmlns="http://www.w3.org/2000/svg">
<path d="M74.6001 1.28798V2.51571H72.6076V8.33684H71.3283V2.51571H69.3359V1.28798H74.6001Z" fill="white"/>
<path d="M79.7803 8.33684H78.5954L76.7498 3.11899V8.33684H75.4495V1.28798H77.3475L79.1931 6.52699L80.9968 1.28798H82.9263V8.33684H81.6365V3.11899L79.7803 8.33684Z" fill="white"/>
<path d="M33.3388 66.6947H35.0796C38.1446 66.6947 40.1418 63.4437 38.7789 60.6728L10.0754 2.31493C9.37793 0.896869 7.94473 0 6.37612 0H4.63533C1.5703 0 -0.426832 3.25103 0.93603 6.0219L29.6395 64.3798C30.337 65.7978 31.7702 66.6947 33.3388 66.6947Z" fill="white"/>
<path d="M33.3241 27.704L49.7317 64.2468C50.4009 65.7373 51.8722 66.6947 53.4935 66.6947H56.3687C59.4144 66.6947 61.4124 63.4809 60.0875 60.7129L44.2868 27.704H33.3241Z" fill="white"/>
<path d="M6.4132 66.6947H4.69777C1.61768 66.6947 -0.378599 63.4146 1.01392 60.6417L10.2462 42.2578C11.2744 40.2105 11.4207 37.826 10.6508 35.6662L8.90965 30.7822L15.9565 44.6707C17.1407 47.0047 17.1679 49.765 16.0299 52.1224L10.126 64.3521C9.43409 65.7853 7.99283 66.6947 6.4132 66.6947Z" fill="white"/>
<path d="M33.5184 0H35.0966C38.1575 0 40.1549 3.24306 38.8001 6.01334L29.6291 24.767C28.6467 26.7759 28.5067 29.0993 29.2407 31.2135L30.9906 36.2546L24.0075 22.1208C22.8753 19.8294 22.8493 17.14 23.9367 14.8267L29.7871 2.38159C30.4708 0.927081 31.9233 0 33.5184 0Z" fill="white"/>
<path d="M55.2864 0H47.8861C47.4881 0 47.1239 0.225787 46.944 0.584074L33.3241 27.704H55.2864C62.8661 27.704 69.0108 21.5022 69.0108 13.852C69.0108 6.20174 62.8662 0 55.2864 0Z" fill="white"/>
<path d="M79.6517 53.1392V55.5002H72.7347V58.6143H79.0669V60.9753H72.7347V64.3337H79.6517V66.6947H70.2341V53.1392H79.6517Z" fill="white"/>
<path d="M91.1666 52.1012V66.6947H88.6861V64.9036C87.9602 66.2062 86.8107 66.9593 85.3587 66.9593C82.7573 66.9593 81.0028 64.7611 81.0028 61.4435C81.0028 58.1462 82.7573 55.9683 85.3587 55.9683C86.8107 55.9683 87.9602 56.7214 88.6861 58.0037V52.1012H91.1666ZM83.5438 61.4435C83.5438 63.5602 84.4916 64.7815 86.1049 64.7815C87.7383 64.7815 88.6861 63.5602 88.6861 61.4435C88.6861 59.347 87.7383 58.1462 86.1049 58.1462C84.4916 58.1462 83.5438 59.347 83.5438 61.4435Z" fill="white"/>
<path d="M95.6838 62.3187C95.6838 63.9877 96.5106 64.7 97.8214 64.7C99.0717 64.7 100.04 63.7638 100.04 62.4408V56.2736H102.5V66.6947H100.04V65.1275C99.2936 66.3283 98.0433 67 96.8938 67C94.736 67 93.1832 65.5142 93.1832 62.8275V56.2736H95.6838V62.3187Z" fill="white"/>
</svg>
