<svg width="32" height="32" viewBox="0 0 32 32" fill="none" xmlns="http://www.w3.org/2000/svg">
<rect opacity="0.01" width="32" height="32" fill="#0063CC"/>
<path d="M12 4H6.66667C5.19391 4 4 5.19391 4 6.66667V12C4 13.4728 5.19391 14.6667 6.66667 14.6667H12C13.4728 14.6667 14.6667 13.4728 14.6667 12V6.66667C14.6667 5.19391 13.4728 4 12 4Z" fill="#0063CC"/>
<path d="M25.3335 4H20.0002C18.5274 4 17.3335 5.19391 17.3335 6.66667V12C17.3335 13.4728 18.5274 14.6667 20.0002 14.6667H25.3335C26.8063 14.6667 28.0002 13.4728 28.0002 12V6.66667C28.0002 5.19391 26.8063 4 25.3335 4Z" fill="#0063CC"/>
<path d="M12 17.3334H6.66667C5.19391 17.3334 4 18.5273 4 20V25.3334C4 26.8061 5.19391 28 6.66667 28H12C13.4728 28 14.6667 26.8061 14.6667 25.3334V20C14.6667 18.5273 13.4728 17.3334 12 17.3334Z" fill="#0063CC"/>
<path d="M25.3335 17.3334H20.0002C18.5274 17.3334 17.3335 18.5273 17.3335 20V25.3334C17.3335 26.8061 18.5274 28 20.0002 28H25.3335C26.8063 28 28.0002 26.8061 28.0002 25.3334V20C28.0002 18.5273 26.8063 17.3334 25.3335 17.3334Z" fill="#0063CC"/>
</svg>
