<svg width="32" height="33" viewBox="0 0 32 33" fill="none" xmlns="http://www.w3.org/2000/svg">
<rect opacity="0.01" x="32" y="32.5" width="32" height="32" transform="rotate(180 32 32.5)" fill="#0063CC"/>
<path d="M4.32007 10.22L15.6801 16.3933C15.8801 16.5 16.1201 16.5 16.3201 16.3933L27.6801 10.22C27.892 10.1153 28.0204 9.8937 28.0059 9.65779C27.9913 9.42189 27.8366 9.21776 27.6134 9.13996L16.2534 4.49996C16.0911 4.43328 15.909 4.43328 15.7467 4.49996L4.38674 9.13996C4.16355 9.21776 4.00885 9.42189 3.99428 9.65779C3.97972 9.8937 4.10815 10.1153 4.32007 10.22Z" fill="#0063CC"/>
<path d="M27.6131 14.7133L25.1731 13.6733L16.3198 18.4867C16.1198 18.5933 15.8798 18.5933 15.6798 18.4867L6.82647 13.6733L4.38647 14.7133C4.17586 14.8239 4.04395 15.0421 4.04395 15.28C4.04395 15.5179 4.17586 15.7361 4.38647 15.8467L15.7465 22.38C15.9429 22.5001 16.1901 22.5001 16.3865 22.38L27.7465 15.8467C27.947 15.7132 28.0557 15.4784 28.0275 15.2391C27.9994 14.9998 27.8392 14.7966 27.6131 14.7133V14.7133Z" fill="#0063CC"/>
<path d="M27.6134 20.6334L25.5334 19.7267L16.3201 24.74C16.1201 24.8467 15.8801 24.8467 15.6801 24.74L6.46677 19.7267L4.38677 20.6334C4.17015 20.7457 4.03418 20.9693 4.03418 21.2134C4.03418 21.4574 4.17015 21.681 4.38677 21.7934L15.7468 28.46C15.9468 28.5667 16.1868 28.5667 16.3868 28.46L27.7468 21.7934C27.9534 21.658 28.066 21.4176 28.0378 21.1722C28.0096 20.9268 27.8454 20.7183 27.6134 20.6334Z" fill="#0063CC"/>
</svg>
