<svg width="32" height="33" viewBox="0 0 32 33" fill="none" xmlns="http://www.w3.org/2000/svg">
<rect opacity="0.01" y="0.5" width="32" height="32" fill="#0063CC"/>
<path d="M11.9998 15.1667C14.9454 15.1667 17.3332 12.7789 17.3332 9.83333C17.3332 6.88781 14.9454 4.5 11.9998 4.5C9.05432 4.5 6.6665 6.88781 6.6665 9.83333C6.6665 12.7789 9.05432 15.1667 11.9998 15.1667Z" fill="#0063CC"/>
<path d="M22.6665 17.8334C24.8756 17.8334 26.6665 16.0425 26.6665 13.8334C26.6665 11.6242 24.8756 9.83337 22.6665 9.83337C20.4574 9.83337 18.6665 11.6242 18.6665 13.8334C18.6665 16.0425 20.4574 17.8334 22.6665 17.8334Z" fill="#0063CC"/>
<path d="M27.9998 27.1667C28.7362 27.1667 29.3332 26.5697 29.3332 25.8333C29.331 23.2911 27.8831 20.9714 25.6003 19.8526C23.3175 18.7339 20.5971 19.0108 18.5865 20.5667C15.9159 17.9066 11.9075 17.114 8.42547 18.5575C4.9435 20.0011 2.6716 23.3973 2.6665 27.1667C2.6665 27.9031 3.26346 28.5 3.99984 28.5H19.9998C20.7362 28.5 21.3332 27.9031 21.3332 27.1667" fill="#0063CC"/>
</svg>
