<svg width="32" height="33" viewBox="0 0 32 33" fill="none" xmlns="http://www.w3.org/2000/svg">
<rect opacity="0.01" x="32" y="32.5" width="32" height="32" transform="rotate(180 32 32.5)" fill="#0063CC"/>
<path d="M16 18.5C17.1046 18.5 18 17.6046 18 16.5C18 15.3954 17.1046 14.5 16 14.5C14.8954 14.5 14 15.3954 14 16.5C14 17.6046 14.8954 18.5 16 18.5Z" fill="#0063CC"/>
<path fill-rule="evenodd" clip-rule="evenodd" d="M25.6398 12.9933H27.0932C28.3324 13.0006 29.3332 14.0073 29.3332 15.2466V17.8333C29.3268 19.0347 28.3738 20.0171 27.1732 20.06H25.7198C25.5451 20.0747 25.3945 20.1889 25.3332 20.3533C25.2359 20.5033 25.2359 20.6966 25.3332 20.8466L26.3065 21.82C26.7275 22.238 26.9642 22.8067 26.9642 23.4C26.9642 23.9932 26.7275 24.5619 26.3065 24.98L24.5198 26.7666C24.1066 27.1918 23.5394 27.4321 22.9465 27.4333C22.3511 27.4255 21.7821 27.1864 21.3598 26.7666L20.3465 25.74C20.1965 25.6427 20.0032 25.6427 19.8532 25.74C19.6532 25.82 19.5065 25.9533 19.5065 26.14V27.5933C19.4992 28.8326 18.4925 29.8333 17.2532 29.8333H14.7332C13.5266 29.8341 12.5363 28.8791 12.4932 27.6733V26.22C12.4784 26.0452 12.3642 25.8946 12.1998 25.8333C12.0332 25.7266 11.8198 25.7266 11.6532 25.8333L10.6265 26.82C10.2085 27.2409 9.63976 27.4777 9.0465 27.4777C8.45325 27.4777 7.88452 27.2409 7.4665 26.82L5.67984 25.0066C5.25267 24.5893 5.01225 24.0171 5.01317 23.42C5.02099 22.8246 5.26006 22.2556 5.67984 21.8333L6.75984 20.8466C6.85715 20.6966 6.85715 20.5033 6.75984 20.3533C6.67984 20.1533 6.5465 20.0066 6.35984 20.0066H4.9065C3.66723 19.9993 2.66648 18.9926 2.6665 17.7533V15.2333C2.6665 13.9962 3.66939 12.9933 4.9065 12.9933H6.27984C6.45462 12.9786 6.60522 12.8643 6.6665 12.7C6.77324 12.5334 6.77324 12.3199 6.6665 12.1533L5.67984 11.1666C5.24643 10.7471 5.00173 10.1698 5.00173 9.56663C5.00173 8.96346 5.24643 8.3861 5.67984 7.96663L7.5065 6.17996C7.9197 5.75483 8.48699 5.51445 9.07984 5.51329C9.67522 5.52111 10.2442 5.76019 10.6665 6.17996L11.6532 7.25996C11.8032 7.35727 11.9965 7.35727 12.1465 7.25996C12.3465 7.17996 12.4932 7.04663 12.4932 6.85996V5.40663C12.5005 4.16735 13.5072 3.1666 14.7465 3.16663H17.3332C18.5442 3.20268 19.507 4.19508 19.5065 5.40663V6.77996C19.5212 6.95474 19.6355 7.10534 19.7998 7.16663C19.9664 7.27336 20.1799 7.27336 20.3465 7.16663L21.3732 6.17996C21.7912 5.759 22.3599 5.52226 22.9532 5.52226C23.5464 5.52226 24.1152 5.759 24.5332 6.17996L26.3198 8.00663C26.7457 8.42479 26.9859 8.99643 26.9865 9.59329C26.9884 10.1868 26.7476 10.7552 26.3198 11.1666L25.2398 12.1533C25.1425 12.3033 25.1425 12.4966 25.2398 12.6466C25.3198 12.8466 25.4532 12.9933 25.6398 12.9933ZM11.6884 18.2858C12.4107 20.0296 14.1123 21.1666 15.9998 21.1666C18.5772 21.1666 20.6665 19.0773 20.6665 16.5C20.6665 14.6125 19.5295 12.9108 17.7857 12.1885C16.0419 11.4662 14.0347 11.8655 12.7 13.2001C11.3653 14.5348 10.9661 16.542 11.6884 18.2858Z" fill="#0063CC"/>
</svg>
