<svg width="32" height="32" viewBox="0 0 32 32" fill="none" xmlns="http://www.w3.org/2000/svg">
<rect opacity="0.01" width="32" height="32" fill="#0063CC"/>
<path fill-rule="evenodd" clip-rule="evenodd" d="M20.4002 3.10662L26.3202 9.77329C26.5424 10.0178 26.666 10.3362 26.6668 10.6666V26C26.6563 26.8946 26.2907 27.7485 25.6506 28.3736C25.0104 28.9988 24.1482 29.344 23.2535 29.3333H8.74683C7.85215 29.344 6.98988 28.9988 6.34974 28.3736C5.7096 27.7485 5.34404 26.8946 5.3335 26V5.99996C5.34404 5.10527 5.7096 4.25143 6.34974 3.62629C6.98988 3.00116 7.85215 2.65595 8.74683 2.66662H19.4135C19.7897 2.66751 20.1481 2.82732 20.4002 3.10662ZM16.0002 16H12.0002C11.2638 16 10.6668 16.5969 10.6668 17.3333C10.6668 18.0697 11.2638 18.6666 12.0002 18.6666H16.0002C16.7365 18.6666 17.3335 18.0697 17.3335 17.3333C17.3335 16.5969 16.7365 16 16.0002 16ZM12.0002 24C11.2638 24 10.6668 23.403 10.6668 22.6666C10.6668 21.9302 11.2638 21.3333 12.0002 21.3333H20.0002C20.7365 21.3333 21.3335 21.9302 21.3335 22.6666C21.3335 23.403 20.7365 24 20.0002 24H12.0002ZM18.6668 9.53329C18.6204 10.106 19.0416 10.6103 19.6135 10.6666H23.6535L18.6668 5.33329V9.53329Z" fill="#0063CC"/>
</svg>
