<svg width="18" height="18" viewBox="0 0 18 18" fill="none" xmlns="http://www.w3.org/2000/svg">
<path d="M9 17.1C13.4735 17.1 17.1 13.4735 17.1 9C17.1 4.52649 13.4735 0.9 9 0.9C4.52649 0.9 0.9 4.52649 0.9 9C0.9 13.4735 4.52649 17.1 9 17.1Z" stroke="#003166" stroke-width="0.2"/>
<path d="M9.0026 9.7062L6.98626 7.35381C6.83749 7.18024 6.59629 7.18024 6.44752 7.35381C6.29874 7.52737 6.29874 7.80878 6.44752 7.98235L8.73323 10.649C8.882 10.8226 9.12321 10.8226 9.27198 10.649L11.5577 7.98235C11.7065 7.80878 11.7065 7.52737 11.5577 7.35381C11.4089 7.18024 11.1677 7.18024 11.0189 7.35381L9.0026 9.7062Z" fill="#003166"/>
<mask id="mask0_673_9255" style="mask-type:luminance" maskUnits="userSpaceOnUse" x="6" y="7" width="6" height="4">
<path d="M9.0026 9.7062L6.98626 7.35381C6.83749 7.18024 6.59629 7.18024 6.44752 7.35381C6.29874 7.52737 6.29874 7.80878 6.44752 7.98235L8.73323 10.649C8.882 10.8226 9.12321 10.8226 9.27198 10.649L11.5577 7.98235C11.7065 7.80878 11.7065 7.52737 11.5577 7.35381C11.4089 7.18024 11.1677 7.18024 11.0189 7.35381L9.0026 9.7062Z" fill="white"/>
</mask>
<g mask="url(#mask0_673_9255)">
</g>
</svg>
