<svg width="22" height="21" viewBox="0 0 22 21" fill="none" xmlns="http://www.w3.org/2000/svg">
<path d="M20 8.5V2.5C20 1.4 19.1 0.5 18 0.5H2C0.9 0.5 0.00999999 1.4 0.00999999 2.5L0 14.5C0 15.6 0.9 16.5 2 16.5H13V11.5C13 9.84 14.34 8.5 16 8.5H20ZM10 9.5L2 4.5V2.5L10 7.5L18 2.5V4.5L10 9.5Z" fill="#007AFF"/>
<path d="M20 12.5V16.5C20 17.6 19.1 18.5 18 18.5C16.9 18.5 16 17.6 16 16.5V12C16 11.72 16.22 11.5 16.5 11.5C16.78 11.5 17 11.72 17 12V16.5H19V12C19 10.62 17.88 9.5 16.5 9.5C15.12 9.5 14 10.62 14 12V16.5C14 18.71 15.79 20.5 18 20.5C20.21 20.5 22 18.71 22 16.5V12.5H20Z" fill="#007AFF"/>
</svg>
