<svg width="32" height="32" viewBox="0 0 32 32" fill="none" xmlns="http://www.w3.org/2000/svg">
<path fill-rule="evenodd" clip-rule="evenodd" d="M10.4055 6.0957C8.12197 6.0957 6.20046 7.80607 5.93584 10.0742L4.8 19.81H20.8L19.6642 10.0742C19.3995 7.80608 17.478 6.0957 15.1945 6.0957H10.4055ZM1.5 19.81C0.671573 19.81 0 20.4816 0 21.31V22.8814C0 23.7099 0.671574 24.3814 1.5 24.3814H24.1C24.9284 24.3814 25.6 23.7099 25.6 22.8814V21.31C25.6 20.4816 24.9284 19.81 24.1 19.81H1.5Z" fill="#66B0FF"/>
<rect x="9.60156" y="25.9053" width="6.4" height="6.09524" rx="2.25" fill="#FF8500"/>
<path opacity="0.173224" fill-rule="evenodd" clip-rule="evenodd" d="M22.3969 18.2857C27.6988 18.2857 31.9969 14.1923 31.9969 9.14286C31.9969 4.0934 27.6988 0 22.3969 0C17.0949 0 12.7969 4.0934 12.7969 9.14286C12.7969 14.1923 17.0949 18.2857 22.3969 18.2857Z" fill="#FF8500"/>
<path fill-rule="evenodd" clip-rule="evenodd" d="M22.4005 17.2696C27.1134 17.2696 30.9339 13.631 30.9339 9.14261C30.9339 4.6542 27.1134 1.01562 22.4005 1.01562C17.6877 1.01562 13.8672 4.6542 13.8672 9.14261C13.8672 13.631 17.6877 17.2696 22.4005 17.2696Z" fill="#FF8500"/>
<path d="M22.3208 13.0156V11.4076H18.6368V10.2796L22.5848 4.55562H23.8568V10.1356H25.0448V11.4076H23.8568V13.0156H22.3208ZM22.3208 10.1356V6.39162H22.6688L19.8368 10.5436V10.1356H22.3208Z" fill="#F2F2F2" fill-opacity="0.94902"/>
</svg>
